# xmcd
#
# Track frame offsets: 
#        182
#        12690
#        25377
#        40560
#        52292
#        65867
#        77437
#        90752
#        103402
#        117155
#        127115
#        140662
#        153080
#        164755
#        183057
#        199582
#        210605
#        223135
#        235110
#        247910
#
# Disc length: 3471 seconds
#
# Revision: 3
# Processed by: cddbd v1.5.2PL0 Copyright (c) Steve Scherf et al.
# Submitted via: ExactAudioCopyFreeDBPlugin 1.0
#
DISCID=1c0d8d14
DTITLE=John Lee Hooker - The Very Best Of  [CD1]
DYEAR=1995
DGENRE=Blues
TTITLE0=High Priced Woman (1951)
TTITLE1=Leave My Wife Alone (1951)
TTITLE2=Ramblin By Myself (1951)
TTITLE3=Walkin' The Boogie (1952)
TTITLE4=Love Blues (1952)
TTITLE5=Please Don't Go (1952)
TTITLE6=Down At The Landing (1952)
TTITLE7=Mambo Chillun (1955)
TTITLE8=Tine Is Marchin' (1955)
TTITLE9=Dimples (1956)
TTITLE10=Every Night (1956)
TTITLE11=Crawlin' Black Spider (1957)
TTITLE12=I Love You Honey (1958)
TTITLE13=House Rent Boogie (1980)
TTITLE14=Trying To Find A Woman (1992)
TTITLE15=Maudie (1959)
TTITLE16=I'm In The Mood (1959)
TTITLE17=Boogie Chillun (1959)
TTITLE18=Hobo Blues (1959)
TTITLE19=Crawlin' Kingsnake (1959)
EXTD=
EXTT0=
EXTT1=
EXTT2=
EXTT3=
EXTT4=
EXTT5=
EXTT6=
EXTT7=
EXTT8=
EXTT9=
EXTT10=
EXTT11=
EXTT12=
EXTT13=
EXTT14=
EXTT15=
EXTT16=
EXTT17=
EXTT18=
EXTT19=
PLAYORDER=
